<?xml version="1.0" encoding="UTF-8" standalone="no"?>
<!-- Created with Inkscape (http://www.inkscape.org/) -->

<svg
   version="1.1"
   id="svg1"
   width="24"
   height="24"
   viewBox="0 0 24 24"
   sodipodi:docname="ashyterm.svg"
   xml:space="preserve"
   inkscape:export-filename="ashy_terminal.svg"
   inkscape:export-xdpi="96"
   inkscape:export-ydpi="96"
   xmlns:inkscape="http://www.inkscape.org/namespaces/inkscape"
   xmlns:sodipodi="http://sodipodi.sourceforge.net/DTD/sodipodi-0.dtd"
   xmlns:xlink="http://www.w3.org/1999/xlink"
   xmlns="http://www.w3.org/2000/svg"
   xmlns:svg="http://www.w3.org/2000/svg"><defs
     id="defs1"><linearGradient
       id="linearGradient11"
       inkscape:collect="always"><stop
         style="stop-color:#afc6e9;stop-opacity:1"
         offset="0"
         id="stop8" /><stop
         style="stop-color:#afc6e9;stop-opacity:1"
         offset="0.9982692"
         id="stop9" /><stop
         style="stop-color:#1c1d25;stop-opacity:1"
         offset="0.99989998"
         id="stop10" /><stop
         style="stop-color:#1c1d25;stop-opacity:1"
         offset="1"
         id="stop11" /></linearGradient><linearGradient
       inkscape:collect="always"
       xlink:href="#linearGradient11"
       id="linearGradient14"
       x1="18"
       y1="18"
       x2="4.0198512"
       y2="3.8411913"
       gradientUnits="userSpaceOnUse" /></defs><sodipodi:namedview
     id="namedview1"
     pagecolor="#ffffff"
     bordercolor="#000000"
     borderopacity="0.25"
     inkscape:showpageshadow="2"
     inkscape:pageopacity="0.0"
     inkscape:pagecheckerboard="0"
     inkscape:deskcolor="#d1d1d1"><inkscape:page
       x="0"
       y="0"
       inkscape:label="1"
       id="page1"
       width="24"
       height="24"
       margin="0"
       bleed="0" /></sodipodi:namedview><g
     id="g1"
     inkscape:groupmode="layer"
     inkscape:label="1"><path
       id="path3"
       d="m 5.699,0.75 h 6.602 c 2.742,0 4.949,2.207 4.949,4.949 v 6.602 c 0,2.742 -2.207,4.949 -4.949,4.949 H 5.699 C 2.957,17.25 0.75,15.043 0.75,12.301 V 5.699 C 0.75,2.957 2.957,0.75 5.699,0.75 Z"
       transform="scale(1.3333333)"
       style="fill:url(#linearGradient14);stroke:none;fill-opacity:1" /><path
       style="fill:#1c1d25;fill-opacity:1;stroke-width:0.00505587"
       d="M 8.196345,17.758576 C 6.8909422,17.466962 5.8075374,16.613443 5.1659353,15.371183 4.2372149,13.573009 4.2272537,11.4325 5.1393156,9.6503491 c 0.6209675,-1.213363 1.6492914,-2.077052 2.8604127,-2.40246 0.4882996,-0.131199 1.3678036,-0.130838 1.8538216,7.6e-4 0.4903191,0.132764 1.1232291,0.47087 1.5982701,0.853812 0.573118,0.462004 0.610525,0.45331 1.828489,-0.424958 1.040289,-0.750147 2.503822,-0.734076 3.845281,0.04222 0.479362,0.277406 1.288711,1.115951 1.626779,1.685462 0.303328,0.510989 0.597391,1.3251989 0.714139,1.9773269 0.113264,0.632668 0.08807,1.829344 -0.05157,2.449422 -0.300684,1.335208 -0.948742,2.425898 -1.844756,3.104744 -0.981673,0.743744 -2.109175,1.039442 -3.155218,0.827487 -0.456574,-0.09251 -1.134654,-0.347326 -1.134654,-0.426387 0,-0.02251 0.08848,-0.23242 0.196618,-0.466474 0.326887,-0.707508 0.24411,-1.079559 -0.301729,-1.356158 -0.85954,-0.435561 -2.279931,-0.267329 -2.77268,0.328398 -0.163725,0.197942 -0.124057,0.522038 0.127586,1.042403 0.254505,0.526284 0.2656,0.493025 -0.227144,0.680911 -0.7089151,0.270312 -1.4520304,0.337939 -2.1066141,0.191712 z"
       id="path2" /><path
       style="fill:#1c1d25;fill-opacity:1;stroke-width:0.00505587"
       d="M 11.294026,20.37491 C 7.5987768,20.092902 4.5487447,18.116485 3.3753278,15.243603 2.6998256,13.589767 2.6552832,11.972954 3.2369728,10.221511 3.4337914,9.6288974 3.5966343,9.3351807 4.1229337,8.6235182 4.7360058,7.7945221 4.8399692,7.4558413 4.9759867,5.8445553 5.0224817,5.2937935 5.0875644,4.6938841 5.1206203,4.5114234 5.1836985,4.1632484 5.3823961,3.5792006 5.4377694,3.5792006 c 0.017809,0 0.3509445,0.3105045 0.7403009,0.6900101 0.7863904,0.7664925 1.1342315,1.0301416 1.5071934,1.1423862 0.2972777,0.089472 0.5492215,0.046438 1.2094546,-0.2065468 1.7644837,-0.6761153 4.3322897,-0.6594926 6.3896447,0.041364 0.324418,0.1105165 0.678687,0.2011615 0.787264,0.2014332 0.359423,9.008e-4 0.748784,-0.2615333 1.607608,-1.0835501 0.451137,-0.4318028 0.840886,-0.7850971 0.866107,-0.7850971 0.07457,0 0.09857,0.1327594 0.274298,1.5167632 0.22928,1.8057944 0.376941,2.4792261 0.640516,2.9211722 0.06449,0.1081394 0.300937,0.4508753 0.52543,0.7616345 0.478645,0.6625782 0.751212,1.223652 0.943504,1.942182 0.676395,2.527471 -0.109958,5.294455 -2.038499,7.17297 -1.451242,1.413599 -3.580656,2.298918 -5.965637,2.48026 -0.815875,0.06203 -0.827525,0.06204 -1.630928,7.28e-4 z m 1.138243,-1.258764 c 0.101043,-0.162031 0.257496,-0.494689 0.347672,-0.73924 l 0.163957,-0.444637 0.325471,0.156655 c 0.612088,0.29461 1.159278,0.394501 1.984472,0.362273 0.59272,-0.02315 0.818598,-0.05731 1.182137,-0.178814 2.272758,-0.759575 3.736408,-3.003287 3.735505,-5.726362 C 20.171086,11.350887 19.945715,10.371354 19.438357,9.3596404 18.552803,7.5937681 17.125544,6.5971568 15.364061,6.5146845 14.358998,6.4676235 13.685177,6.6244378 13.016379,7.0610336 12.080243,7.6721493 11.944089,7.6869185 11.247898,7.252863 10.183425,6.5891944 9.7466318,6.4649974 8.6588322,6.5166956 6.9037285,6.6001112 5.5250204,7.5147746 4.6189608,9.1968399 3.8248316,10.67111 3.6063956,12.69867 4.0530912,14.449333 c 0.4073149,1.596322 1.382469,2.864921 2.7205484,3.539215 1.1727594,0.590987 2.135229,0.622678 3.8199944,0.125781 l 0.449411,-0.132547 0.132721,0.409635 c 0.161547,0.498604 0.438443,0.975209 0.61863,1.064806 0.217229,0.108018 0.428772,-0.0048 0.637873,-0.340077 z"
       id="path3-3" /><path
       style="stroke-width:0.051544"
       d="M 1.9407617,19.521522"
       id="path7" /><path
       style="fill:#afc6e9;fill-opacity:1;stroke-width:0.0410324"
       d="m 14.850519,10.695589 -3.395923,3.406503 c -0.111078,0.107712 -0.259338,0.169581 -0.407122,0.169581 -0.148741,0 -0.291392,-0.05979 -0.400708,-0.167977 L 9.151806,12.602804 C 9.0437751,12.496372 8.9839906,12.354846 8.9833481,12.204657 c -4.495e-4,-0.152431 0.059461,-0.296844 0.1692577,-0.406799 0.082867,-0.08302 0.1852895,-0.134956 0.2925199,-0.155796 0.1030605,-0.01986 0.2104488,-0.0099 0.3093428,0.02759 0.00403,0.0013 0.00836,0.0019 0.012362,0.0036 0.028048,0.01137 0.054821,0.02661 0.081105,0.04265 0.00562,0.0036 0.011866,0.0056 0.017485,0.0093 0.03142,0.02067 0.061233,0.04504 0.0888,0.07261 l 0.9871825,0.989753 c 0.0561,0.05626 0.155635,0.05626 0.211734,0 l 2.523019,-2.52719 c 0,0 3.32e-4,-3.18e-4 4.49e-4,-4.49e-4 l 0.369774,-0.3705731 c 0.214138,-0.21462 0.589845,-0.214782 0.80414,0 0.221514,0.2221521 0.221514,0.5837491 0,0.8060641 z"
       id="path6" /></g></svg>
